<svg xmlns="http://www.w3.org/2000/svg" xml:space="preserve" width="173.42818mm" height="32.35854mm" viewBox="0 0 173.42818 32.35854"><path d="M132.093 101.918v1.208h-3.33v1.568h8.488v-1.568h-3.248v-1.208zm77.85.115c-.507 0-.964.081-1.404.261-.441.18-.833.408-1.176.718-.31.31-.57.67-.767 1.078a3.014 3.014 0 0 0-.294 1.322c0 .473.098.898.294 1.306.196.408.457.767.767 1.077.343.31.735.539 1.176.718.44.18.897.262 1.403.262s.98-.082 1.42-.262a3.84 3.84 0 0 0 1.16-.718c.31-.31.571-.669.767-1.077.196-.408.294-.833.294-1.306 0-.474-.098-.914-.294-1.322a3.919 3.919 0 0 0-.768-1.078 3.84 3.84 0 0 0-1.158-.718 3.725 3.725 0 0 0-1.42-.261zm-58.98.098-6.219 6.431 1.355 1.209 4.864-5.045 4.865 5.045 1.355-1.209zm-41.48.081v8.13h1.813v-8.13zm14.627 0v14.562h1.812v-6.71h1.86v-1.713h-1.86v-6.139zm14.92 0v8.783h1.796v-3.592h2.09v-1.779h-2.09v-3.412zm30.494 0v14.562h1.796v-7.134h2.09v-1.812h-2.09v-5.616zm16.193 0v1.486h-2.121v1.502h2.121v2.106h-2.121v1.485h2.121v2.742h1.813v-9.32zm30.314 0v4.18h-2.024v1.566h2.024v5.371h1.796v-11.117Zm-52.433.099-4.766 11.867 1.648.718 3.118-8.096 3.167 7.982 1.6-.702zm15.41 0c-.571 0-1.093.097-1.583.31a4.317 4.317 0 0 0-1.323.865c-.375.375-.669.8-.881 1.273a3.75 3.75 0 0 0-.326 1.534c0 .539.114 1.062.326 1.535.212.473.506.898.881 1.273.376.36.817.637 1.323.849.49.212 1.012.327 1.583.327.572 0 1.11-.115 1.616-.327.49-.212.93-.49 1.306-.849.375-.375.67-.8.882-1.273.212-.473.326-.996.326-1.535a3.75 3.75 0 0 0-.326-1.534 4.244 4.244 0 0 0-.882-1.273 4.442 4.442 0 0 0-1.306-.865 4.13 4.13 0 0 0-1.616-.31zm-94.68.195v1.6h9.42v2.742h1.812v-4.342zm14.74.13v1.535h5.894v1.453H99.07v4.44h7.852v-1.502h-6.056v-1.469h5.893v-4.456zm91.988.05v1.6h9.419v4.93h1.811v-6.53zm-76.969.326v1.6h6.22v7.395h1.78v-8.995zm95.855.555c.506 0 .964.18 1.34.523.375.359.554.8.554 1.322 0 .506-.18.947-.555 1.29a1.89 1.89 0 0 1-1.339.538 1.85 1.85 0 0 1-1.322-.538 1.697 1.697 0 0 1-.571-1.29c0-.523.196-.963.571-1.322a1.905 1.905 0 0 1 1.322-.523zm-30.917.343c.326 0 .636.065.914.196.277.13.538.294.767.506.212.229.376.49.506.767.13.294.196.604.196.93 0 .327-.065.637-.196.915-.13.277-.294.539-.506.75-.229.213-.49.392-.767.507-.278.13-.588.196-.914.196-.31 0-.62-.066-.898-.196a2.485 2.485 0 0 1-.784-.506 2.642 2.642 0 0 1-.506-.751 2.137 2.137 0 0 1-.196-.914c0-.327.066-.637.196-.93.13-.278.294-.54.506-.768.229-.212.49-.376.784-.506.277-.13.588-.196.898-.196zm-45.969 1.061c-.473 0-.898.082-1.306.245-.408.18-.767.392-1.077.67-.31.277-.539.603-.719.979a2.79 2.79 0 0 0-.277 1.208c0 .424.098.832.277 1.208.18.375.409.718.719.996.31.277.669.49 1.077.653.408.18.833.26 1.306.26.473 0 .898-.08 1.306-.26a3.59 3.59 0 0 0 1.077-.653c.294-.278.54-.62.719-.996.18-.376.26-.784.26-1.208 0-.424-.08-.833-.26-1.208a3.304 3.304 0 0 0-.719-.98c-.31-.277-.669-.49-1.077-.67a3.442 3.442 0 0 0-1.306-.244zm0 1.502c.44 0 .833.147 1.16.457.31.31.472.686.472 1.126 0 .441-.163.817-.473 1.127-.326.31-.718.473-1.159.473a1.58 1.58 0 0 1-1.143-.473 1.542 1.542 0 0 1-.473-1.127c0-.44.163-.816.473-1.126.31-.31.702-.457 1.143-.457zm-49.772 1.534v1.6h5.778v2.122h-4.864v1.584h9.582v3.493h1.812v-5.077h-4.718v-2.122h5.796v-1.6zm33.236.915v4.783h-2.971v1.616H123v-1.616h-4.685v-4.783zm88.672.44v1.6h4.016v2.204h1.812v-2.204h3.852v-1.6zm-15.181 1.094v1.616h5.779v4.702h1.811v-4.702h5.795v-1.616zm-90.126.376v5.648h11.411v-5.648h-1.78v1.208h-7.851v-1.208zm44.385.457v1.6h5.78v3.885h1.811v-3.886h5.795v-1.6zm31.457.326v4.865h11.933v-1.6h-10.137v-3.265zm-46.36.196v1.6h9.663v3.232h1.796v-4.832zm76.821.555v4.163h11.818v-1.584h-10.022v-2.58zm-104.523 1.143h7.851v1.469h-7.851z" style="font-size:16.7159px;font-family:&quot;대한민국 정부상징체&quot;;letter-spacing:0;opacity:1;fill:#575756;fill-opacity:1;stroke-width:1.61141;stroke-opacity:.440476" transform="translate(-44.578 -93.15)"/><path d="M0 0c0-25.331-20.534-45.866-45.864-45.866-25.327 0-45.859 20.535-45.859 45.866 0 25.329 20.532 45.859 45.859 45.859C-20.534 45.859 0 25.329 0 0" style="fill:#fff;fill-opacity:1;fill-rule:nonzero;stroke:none" transform="matrix(.35278 0 0 -.35278 32.358 16.178)"/><path d="M0 0c-7.288 4.957-16.628 2.933-21.532-4.521a15.233 15.233 0 0 0-12.671-7c-7.801 0-13.138 5.489-14.719 11.167h-.007c-.013.055-.021.101-.043.158a1.705 1.705 0 0 1-.048.19c-.619 2.372-.775 3.503-.775 6.022 0 13.58 13.929 28.699 33.997 28.699 20.548 0 32.309-15.644 35.336-24.339-.05.153-.098.306-.153.463-5.831 17.003-21.957 29.228-40.939 29.228-23.889 0-43.265-19.368-43.265-43.266 0-21.359 15.403-39.645 36.774-39.645 17.044 0 28.498 9.558 33.755 22.728C8.588-12.913 6.55-4.448 0 0" style="fill:#003863;fill-opacity:1;fill-rule:nonzero;stroke:none" transform="matrix(.35278 0 0 -.35278 23.783 15.05)"/><path d="M0 0c-2.529 8.479-14.376 25.181-35.608 25.181-20.068 0-33.997-15.119-33.997-28.7 0-2.518.156-3.649.775-6.021-.26 1.039-.4 2.079-.4 3.091 0 14.14 14.163 23.939 28.718 23.939 19.705 0 35.677-15.971 35.677-35.674 0-15.445-8.889-28.813-21.804-35.237l.004-.012c16.648 6.031 28.537 21.974 28.537 40.7C1.902-8.302 1.305-4.396 0 0" style="fill:#e4032e;fill-opacity:1;fill-rule:nonzero;stroke:none" transform="matrix(.35278 0 0 -.35278 30.771 11.687)"/></svg>